/* XPM */
static char * mures_48_xpm[] = {
"48 48 5 1",
" 	c None",
".	c #3E0F60",
"+	c #581B89",
"@	c #000000",
"#	c #FFFFFF",
"                                                ",
"                                                ",
"                                                ",
"                                                ",
"                                                ",
"                                                ",
"                                                ",
"                                                ",
"                                                ",
"                                                ",
"                                                ",
"                           ...                  ",
"                          .++..                 ",
"                          .+++.                 ",
"                          .++++.                ",
"                ....      ..+++...              ",
"            .....++.........+++++...            ",
"           ..++++++++++++++..+++++++..          ",
"           .++++++++++++++++..++@@++++..        ",
"           .+++++++++++++++++++@#@@++++..       ",
"          ..+++++++++++++++++++@#@@++++++..     ",
"          .+++++++++++++++++++++@@++++++++...   ",
"          .+++++++++++++++++++++++++++++++++.   ",
"      .....+++++++++++++++++++++@@+++++++++..   ",
"     ..   .++++++++++++++++++++@#@@+++++++..    ",
"    ..    .++++++++++++++++++.+@#@@+++++...     ",
"    .     .+++++++++++++++++..++@@++++...       ",
"          ..+++++++++++++++..++++++++..         ",
"           ...+++++++++++++.+++.+++...          ",
"             ..+++++++++++..+++.....            ",
"              ..++++++.....+++...               ",
"               ........   .+++.                 ",
"                          .+++.                 ",
"                          .++.                  ",
"                          ....                  ",
"                                                ",
"                                                ",
"                                                ",
"                                                ",
"                                                ",
"                                                ",
"                                                ",
"                                                ",
"                                                ",
"                                                ",
"                                                ",
"                                                ",
"                                                "};
